<mxfile host="app.diagrams.net" agent="Mozilla/5.0 (Windows NT 10.0; Win64; x64) AppleWebKit/537.36 (KHTML, like Gecko) Chrome/131.0.0.0 Safari/537.36" version="26.0.6">
  <diagram name="第 1 页" id="Xji4R8Udd_G-8M7TpZf_">
    <mxGraphModel dx="3000" dy="2715" grid="1" gridSize="10" guides="1" tooltips="1" connect="1" arrows="1" fold="1" page="1" pageScale="1" pageWidth="827" pageHeight="1169" math="0" shadow="0">
      <root>
        <mxCell id="0" />
        <mxCell id="1" parent="0" />
        <mxCell id="8H7HnIsIq4B1jUsHLXcl-13" value="" style="rounded=1;whiteSpace=wrap;html=1;" vertex="1" parent="1">
          <mxGeometry x="1400" y="-219.5" width="530" height="450" as="geometry" />
        </mxCell>
        <mxCell id="TXffhixDmtL6kJVbzMdP-58" value="" style="rounded=0;whiteSpace=wrap;html=1;" parent="1" vertex="1">
          <mxGeometry x="50" y="-465.3" width="860" height="243" as="geometry" />
        </mxCell>
        <mxCell id="TXffhixDmtL6kJVbzMdP-59" value="10.99.225.12" style="text;html=1;align=center;verticalAlign=middle;whiteSpace=wrap;rounded=0;fontSize=16;" parent="1" vertex="1">
          <mxGeometry x="110" y="-315.3" width="100" height="30" as="geometry" />
        </mxCell>
        <mxCell id="TXffhixDmtL6kJVbzMdP-64" value="" style="rounded=0;whiteSpace=wrap;html=1;" parent="1" vertex="1">
          <mxGeometry x="40" y="-110" width="870" height="323" as="geometry" />
        </mxCell>
        <mxCell id="TXffhixDmtL6kJVbzMdP-65" value="10.99.225.85" style="text;html=1;align=center;verticalAlign=middle;whiteSpace=wrap;rounded=0;fontSize=16;" parent="1" vertex="1">
          <mxGeometry x="120" y="120" width="100" height="30" as="geometry" />
        </mxCell>
        <mxCell id="TXffhixDmtL6kJVbzMdP-55" value="" style="rounded=0;whiteSpace=wrap;html=1;" parent="1" vertex="1">
          <mxGeometry x="1580" y="-34.5" width="170" height="80" as="geometry" />
        </mxCell>
        <mxCell id="TXffhixDmtL6kJVbzMdP-57" value="反向代理服务器&lt;br&gt;192.168.1.78" style="text;html=1;align=center;verticalAlign=middle;whiteSpace=wrap;rounded=0;fontSize=16;" parent="1" vertex="1">
          <mxGeometry x="1605" y="-9.5" width="120" height="30" as="geometry" />
        </mxCell>
        <mxCell id="TXffhixDmtL6kJVbzMdP-1" value="" style="rounded=0;whiteSpace=wrap;html=1;" parent="1" vertex="1">
          <mxGeometry x="40" y="293" width="870" height="337" as="geometry" />
        </mxCell>
        <mxCell id="TXffhixDmtL6kJVbzMdP-2" style="edgeStyle=none;curved=1;rounded=0;orthogonalLoop=1;jettySize=auto;html=1;fontSize=12;startSize=8;endSize=8;" parent="1" source="TXffhixDmtL6kJVbzMdP-4" target="TXffhixDmtL6kJVbzMdP-15" edge="1">
          <mxGeometry relative="1" as="geometry" />
        </mxCell>
        <mxCell id="TXffhixDmtL6kJVbzMdP-4" value="" style="ellipse;whiteSpace=wrap;html=1;" parent="1" vertex="1">
          <mxGeometry x="414" y="356.3" width="146" height="105" as="geometry" />
        </mxCell>
        <mxCell id="TXffhixDmtL6kJVbzMdP-9" value="HikDW" style="text;html=1;align=center;verticalAlign=middle;whiteSpace=wrap;rounded=0;fontSize=16;" parent="1" vertex="1">
          <mxGeometry x="457" y="393.8" width="60" height="30" as="geometry" />
        </mxCell>
        <mxCell id="TXffhixDmtL6kJVbzMdP-15" value="" style="ellipse;whiteSpace=wrap;html=1;aspect=fixed;" parent="1" vertex="1">
          <mxGeometry x="537" y="-30" width="131" height="131" as="geometry" />
        </mxCell>
        <mxCell id="TXffhixDmtL6kJVbzMdP-16" value="platform" style="text;html=1;align=center;verticalAlign=middle;whiteSpace=wrap;rounded=0;fontSize=16;" parent="1" vertex="1">
          <mxGeometry x="572.5" y="20.5" width="60" height="30" as="geometry" />
        </mxCell>
        <mxCell id="TXffhixDmtL6kJVbzMdP-17" style="edgeStyle=none;curved=1;rounded=0;orthogonalLoop=1;jettySize=auto;html=1;fontSize=12;startSize=8;endSize=8;" parent="1" source="TXffhixDmtL6kJVbzMdP-23" target="TXffhixDmtL6kJVbzMdP-4" edge="1">
          <mxGeometry relative="1" as="geometry" />
        </mxCell>
        <mxCell id="TXffhixDmtL6kJVbzMdP-23" value="" style="ellipse;whiteSpace=wrap;html=1;aspect=fixed;" parent="1" vertex="1">
          <mxGeometry x="130" y="343.8" width="130" height="130" as="geometry" />
        </mxCell>
        <mxCell id="TXffhixDmtL6kJVbzMdP-24" value="LocationEngine" style="text;html=1;align=center;verticalAlign=middle;whiteSpace=wrap;rounded=0;fontSize=16;" parent="1" vertex="1">
          <mxGeometry x="165" y="393.8" width="60" height="30" as="geometry" />
        </mxCell>
        <mxCell id="TXffhixDmtL6kJVbzMdP-29" value="" style="ellipse;whiteSpace=wrap;html=1;aspect=fixed;" parent="1" vertex="1">
          <mxGeometry x="691" y="340.8" width="136" height="136" as="geometry" />
        </mxCell>
        <mxCell id="TXffhixDmtL6kJVbzMdP-30" value="JT808" style="text;html=1;align=center;verticalAlign=middle;whiteSpace=wrap;rounded=0;fontSize=16;" parent="1" vertex="1">
          <mxGeometry x="729" y="395.8" width="60" height="30" as="geometry" />
        </mxCell>
        <mxCell id="TXffhixDmtL6kJVbzMdP-32" style="edgeStyle=none;curved=1;rounded=0;orthogonalLoop=1;jettySize=auto;html=1;exitX=0.5;exitY=0;exitDx=0;exitDy=0;fontSize=12;startSize=8;endSize=8;" parent="1" source="TXffhixDmtL6kJVbzMdP-34" target="TXffhixDmtL6kJVbzMdP-1" edge="1">
          <mxGeometry relative="1" as="geometry" />
        </mxCell>
        <mxCell id="TXffhixDmtL6kJVbzMdP-34" value="" style="rhombus;whiteSpace=wrap;html=1;" parent="1" vertex="1">
          <mxGeometry x="381.5" y="780" width="191" height="200" as="geometry" />
        </mxCell>
        <mxCell id="TXffhixDmtL6kJVbzMdP-35" value="RTK基站一" style="text;html=1;align=center;verticalAlign=middle;whiteSpace=wrap;rounded=0;fontSize=16;" parent="1" vertex="1">
          <mxGeometry x="430.88" y="865" width="98.25" height="30" as="geometry" />
        </mxCell>
        <mxCell id="TXffhixDmtL6kJVbzMdP-56" value="10.99.225.121" style="text;html=1;align=center;verticalAlign=middle;whiteSpace=wrap;rounded=0;fontSize=16;" parent="1" vertex="1">
          <mxGeometry x="110" y="585" width="100" height="30" as="geometry" />
        </mxCell>
        <mxCell id="TXffhixDmtL6kJVbzMdP-60" style="edgeStyle=none;curved=1;rounded=0;orthogonalLoop=1;jettySize=auto;html=1;exitX=0.5;exitY=1;exitDx=0;exitDy=0;fontSize=12;startSize=8;endSize=8;entryX=0.566;entryY=0.019;entryDx=0;entryDy=0;entryPerimeter=0;" parent="1" source="TXffhixDmtL6kJVbzMdP-62" target="TXffhixDmtL6kJVbzMdP-58" edge="1">
          <mxGeometry relative="1" as="geometry">
            <mxPoint x="1010" y="-619.9999999999998" as="targetPoint" />
          </mxGeometry>
        </mxCell>
        <mxCell id="TXffhixDmtL6kJVbzMdP-62" value="" style="rhombus;whiteSpace=wrap;html=1;" parent="1" vertex="1">
          <mxGeometry x="441.5" y="-770" width="191" height="200" as="geometry" />
        </mxCell>
        <mxCell id="TXffhixDmtL6kJVbzMdP-63" value="RTK基站二" style="text;html=1;align=center;verticalAlign=middle;whiteSpace=wrap;rounded=0;fontSize=16;" parent="1" vertex="1">
          <mxGeometry x="492.88" y="-685" width="88.25" height="30" as="geometry" />
        </mxCell>
        <mxCell id="TXffhixDmtL6kJVbzMdP-71" value="" style="endArrow=classic;html=1;rounded=0;exitX=0;exitY=0.5;exitDx=0;exitDy=0;entryX=1;entryY=0.5;entryDx=0;entryDy=0;" parent="1" source="TXffhixDmtL6kJVbzMdP-29" target="TXffhixDmtL6kJVbzMdP-4" edge="1">
          <mxGeometry width="50" height="50" relative="1" as="geometry">
            <mxPoint x="780" y="300" as="sourcePoint" />
            <mxPoint x="830" y="250" as="targetPoint" />
          </mxGeometry>
        </mxCell>
        <mxCell id="8H7HnIsIq4B1jUsHLXcl-2" value="" style="ellipse;whiteSpace=wrap;html=1;" vertex="1" parent="1">
          <mxGeometry x="422.5" y="-435.8" width="146" height="105" as="geometry" />
        </mxCell>
        <mxCell id="8H7HnIsIq4B1jUsHLXcl-3" value="HikDW" style="text;html=1;align=center;verticalAlign=middle;whiteSpace=wrap;rounded=0;fontSize=16;" vertex="1" parent="1">
          <mxGeometry x="465.5" y="-398.3" width="60" height="30" as="geometry" />
        </mxCell>
        <mxCell id="8H7HnIsIq4B1jUsHLXcl-4" value="" style="ellipse;whiteSpace=wrap;html=1;aspect=fixed;" vertex="1" parent="1">
          <mxGeometry x="138.5" y="-448.3" width="130" height="130" as="geometry" />
        </mxCell>
        <mxCell id="8H7HnIsIq4B1jUsHLXcl-5" value="LocationEngine" style="text;html=1;align=center;verticalAlign=middle;whiteSpace=wrap;rounded=0;fontSize=16;" vertex="1" parent="1">
          <mxGeometry x="173.5" y="-398.3" width="60" height="30" as="geometry" />
        </mxCell>
        <mxCell id="8H7HnIsIq4B1jUsHLXcl-6" value="" style="ellipse;whiteSpace=wrap;html=1;aspect=fixed;" vertex="1" parent="1">
          <mxGeometry x="699.5" y="-451.3" width="136" height="136" as="geometry" />
        </mxCell>
        <mxCell id="8H7HnIsIq4B1jUsHLXcl-7" value="JT808" style="text;html=1;align=center;verticalAlign=middle;whiteSpace=wrap;rounded=0;fontSize=16;" vertex="1" parent="1">
          <mxGeometry x="737.5" y="-396.3" width="60" height="30" as="geometry" />
        </mxCell>
        <mxCell id="8H7HnIsIq4B1jUsHLXcl-8" value="" style="endArrow=classic;html=1;rounded=0;exitX=1;exitY=0.5;exitDx=0;exitDy=0;entryX=0;entryY=0.5;entryDx=0;entryDy=0;" edge="1" parent="1" source="8H7HnIsIq4B1jUsHLXcl-4" target="8H7HnIsIq4B1jUsHLXcl-2">
          <mxGeometry width="50" height="50" relative="1" as="geometry">
            <mxPoint x="830" y="-300" as="sourcePoint" />
            <mxPoint x="880" y="-350" as="targetPoint" />
          </mxGeometry>
        </mxCell>
        <mxCell id="8H7HnIsIq4B1jUsHLXcl-9" value="" style="endArrow=classic;html=1;rounded=0;exitX=0;exitY=0.5;exitDx=0;exitDy=0;entryX=1;entryY=0.5;entryDx=0;entryDy=0;" edge="1" parent="1" source="8H7HnIsIq4B1jUsHLXcl-6" target="8H7HnIsIq4B1jUsHLXcl-2">
          <mxGeometry width="50" height="50" relative="1" as="geometry">
            <mxPoint x="710" y="-570" as="sourcePoint" />
            <mxPoint x="760" y="-620" as="targetPoint" />
          </mxGeometry>
        </mxCell>
        <mxCell id="8H7HnIsIq4B1jUsHLXcl-10" value="" style="endArrow=classic;html=1;rounded=0;exitX=0.5;exitY=1;exitDx=0;exitDy=0;entryX=0.5;entryY=0;entryDx=0;entryDy=0;" edge="1" parent="1" source="8H7HnIsIq4B1jUsHLXcl-2" target="TXffhixDmtL6kJVbzMdP-15">
          <mxGeometry width="50" height="50" relative="1" as="geometry">
            <mxPoint x="350" y="-150" as="sourcePoint" />
            <mxPoint x="400" y="-200" as="targetPoint" />
          </mxGeometry>
        </mxCell>
        <mxCell id="8H7HnIsIq4B1jUsHLXcl-12" value="&lt;font style=&quot;font-size: 18px;&quot;&gt;集团内网&lt;/font&gt;" style="text;html=1;align=center;verticalAlign=middle;whiteSpace=wrap;rounded=0;" vertex="1" parent="1">
          <mxGeometry x="1760" y="145.5" width="130" height="60" as="geometry" />
        </mxCell>
        <mxCell id="8H7HnIsIq4B1jUsHLXcl-14" value="路由器&lt;div&gt;60.2.15.137&lt;/div&gt;" style="rounded=0;whiteSpace=wrap;html=1;" vertex="1" parent="1">
          <mxGeometry x="1880" y="-24.5" width="120" height="60" as="geometry" />
        </mxCell>
        <mxCell id="8H7HnIsIq4B1jUsHLXcl-15" value="&lt;div&gt;&lt;font style=&quot;font-size: 36px;&quot;&gt;外网-nginx-内网&lt;/font&gt;&lt;/div&gt;&lt;div&gt;&lt;font size=&quot;3&quot; style=&quot;&quot;&gt;60.2.15.137:19073---192.168.1.78:19073----10.99.225.121:1867&lt;/font&gt;&lt;/div&gt;&lt;div&gt;&lt;font size=&quot;3&quot;&gt;60.2.15.137:19074---192.168.1.78:19074----10.99.225.121:1868&lt;/font&gt;&lt;/div&gt;&lt;div&gt;&lt;font size=&quot;3&quot;&gt;60.2.15.137:19075---192.168.1.78:19075----10.99.225.121:62000&lt;/font&gt;&lt;/div&gt;&lt;div&gt;&lt;font size=&quot;3&quot;&gt;60.2.15.137:19076---192.168.1.78:19076 ----10.99.225.121:62222&lt;/font&gt;&lt;/div&gt;&lt;div&gt;&lt;font size=&quot;3&quot;&gt;60.2.15.137:19077---192.168.1.78:19077 ----10.99.225.12:1865&lt;/font&gt;&lt;/div&gt;&lt;div&gt;&lt;font size=&quot;3&quot;&gt;60.2.15.137:19078---192.168.1.78:19078----10.99.225.12:1866&lt;/font&gt;&lt;/div&gt;&lt;div&gt;&lt;font size=&quot;3&quot;&gt;60.2.15.137:19079---192.168.1.78:19079----10.99.225.12:62333&lt;/font&gt;&lt;/div&gt;&lt;div&gt;&lt;font size=&quot;3&quot;&gt;60.2.15.137:19080---192.168.1.78:19080 ----10.99.225.12:62444&lt;/font&gt;&lt;/div&gt;" style="text;html=1;align=center;verticalAlign=middle;whiteSpace=wrap;rounded=0;" vertex="1" parent="1">
          <mxGeometry x="1480" y="-689.3" width="840" height="224" as="geometry" />
        </mxCell>
        <mxCell id="8H7HnIsIq4B1jUsHLXcl-16" value="引擎服务加装防火墙" style="rounded=1;whiteSpace=wrap;html=1;" vertex="1" parent="1">
          <mxGeometry x="1050" y="-39.5" width="179" height="90" as="geometry" />
        </mxCell>
        <mxCell id="8H7HnIsIq4B1jUsHLXcl-17" value="" style="endArrow=none;html=1;rounded=0;exitX=1;exitY=0.5;exitDx=0;exitDy=0;entryX=0;entryY=0;entryDx=0;entryDy=0;" edge="1" parent="1" source="TXffhixDmtL6kJVbzMdP-58" target="8H7HnIsIq4B1jUsHLXcl-16">
          <mxGeometry width="50" height="50" relative="1" as="geometry">
            <mxPoint x="980" y="-280" as="sourcePoint" />
            <mxPoint x="1030" y="-330" as="targetPoint" />
          </mxGeometry>
        </mxCell>
        <mxCell id="8H7HnIsIq4B1jUsHLXcl-18" value="" style="endArrow=none;html=1;rounded=0;exitX=1;exitY=0.5;exitDx=0;exitDy=0;entryX=0;entryY=0.5;entryDx=0;entryDy=0;" edge="1" parent="1" source="TXffhixDmtL6kJVbzMdP-64" target="8H7HnIsIq4B1jUsHLXcl-16">
          <mxGeometry width="50" height="50" relative="1" as="geometry">
            <mxPoint x="1110" y="220" as="sourcePoint" />
            <mxPoint x="1160" y="170" as="targetPoint" />
          </mxGeometry>
        </mxCell>
        <mxCell id="8H7HnIsIq4B1jUsHLXcl-19" value="" style="endArrow=none;html=1;rounded=0;exitX=1;exitY=0.75;exitDx=0;exitDy=0;entryX=0;entryY=1;entryDx=0;entryDy=0;" edge="1" parent="1" source="TXffhixDmtL6kJVbzMdP-1" target="8H7HnIsIq4B1jUsHLXcl-16">
          <mxGeometry width="50" height="50" relative="1" as="geometry">
            <mxPoint x="1110" y="430" as="sourcePoint" />
            <mxPoint x="1160" y="380" as="targetPoint" />
          </mxGeometry>
        </mxCell>
        <mxCell id="8H7HnIsIq4B1jUsHLXcl-20" value="" style="endArrow=classic;html=1;rounded=0;exitX=1;exitY=0.5;exitDx=0;exitDy=0;entryX=0;entryY=0.5;entryDx=0;entryDy=0;" edge="1" parent="1" source="8H7HnIsIq4B1jUsHLXcl-16" target="8H7HnIsIq4B1jUsHLXcl-13">
          <mxGeometry width="50" height="50" relative="1" as="geometry">
            <mxPoint x="1130" y="-180" as="sourcePoint" />
            <mxPoint x="1180" y="-230" as="targetPoint" />
          </mxGeometry>
        </mxCell>
        <mxCell id="8H7HnIsIq4B1jUsHLXcl-21" value="12、121、85&lt;br&gt;端口全开放" style="edgeLabel;html=1;align=center;verticalAlign=middle;resizable=0;points=[];" vertex="1" connectable="0" parent="8H7HnIsIq4B1jUsHLXcl-20">
          <mxGeometry x="-0.1041" y="-1" relative="1" as="geometry">
            <mxPoint x="1" as="offset" />
          </mxGeometry>
        </mxCell>
        <mxCell id="8H7HnIsIq4B1jUsHLXcl-25" style="edgeStyle=orthogonalEdgeStyle;rounded=0;orthogonalLoop=1;jettySize=auto;html=1;exitX=0;exitY=0.5;exitDx=0;exitDy=0;entryX=1;entryY=0.5;entryDx=0;entryDy=0;" edge="1" parent="1" source="8H7HnIsIq4B1jUsHLXcl-22" target="8H7HnIsIq4B1jUsHLXcl-14">
          <mxGeometry relative="1" as="geometry" />
        </mxCell>
        <mxCell id="8H7HnIsIq4B1jUsHLXcl-22" value="终端*500" style="rhombus;whiteSpace=wrap;html=1;" vertex="1" parent="1">
          <mxGeometry x="2260" y="-114" width="80" height="80" as="geometry" />
        </mxCell>
        <mxCell id="8H7HnIsIq4B1jUsHLXcl-24" style="edgeStyle=orthogonalEdgeStyle;rounded=0;orthogonalLoop=1;jettySize=auto;html=1;exitX=0;exitY=0.5;exitDx=0;exitDy=0;entryX=1;entryY=0.5;entryDx=0;entryDy=0;" edge="1" parent="1" source="8H7HnIsIq4B1jUsHLXcl-23" target="8H7HnIsIq4B1jUsHLXcl-14">
          <mxGeometry relative="1" as="geometry" />
        </mxCell>
        <mxCell id="8H7HnIsIq4B1jUsHLXcl-23" value="终端*500" style="rhombus;whiteSpace=wrap;html=1;" vertex="1" parent="1">
          <mxGeometry x="2260" y="70" width="80" height="80" as="geometry" />
        </mxCell>
      </root>
    </mxGraphModel>
  </diagram>
</mxfile>
